<?xml version="1.0" encoding="utf-8"?>
<!-- Generator: Adobe Illustrator 22.1.0, SVG Export Plug-In . SVG Version: 6.00 Build 0)  -->
<svg version="1.1" id="Layer_1" xmlns="http://www.w3.org/2000/svg" xmlns:xlink="http://www.w3.org/1999/xlink" x="0px" y="0px"
	 viewBox="0 0 172.53998 25.32372" style="enable-background:new 0 0 172.53998 25.32372;" xml:space="preserve">
<style type="text/css">
	.st0{fill:#231F20;}
</style>
<title>GCCIS_hor_k1</title>
<polygon class="st0" points="73.04,0.15734 73.23,0.15734 73.42,0.15734 73.42,12.64234 73.42,25.12734 73.23,25.12734 
	73.04,25.12734 73.04,12.64234 "/>
<path class="st0" d="M36.19,2.82734c0.215-0.56,0.6775-0.84,1.23-0.98c0.5525-0.14,1.195-0.14,1.77-0.14h0.105H39.4v-0.79v-0.79
	c0,0-1.11,0.025-2.39,0.05c-1.28,0.025-2.73,0.05-3.41,0.05s-2.07-0.025-3.29-0.05s-2.27-0.05-2.27-0.05v0.79v0.79h0.105h0.105
	c0.57,0,1.21,0,1.7625,0.14s1.0175,0.42,1.2375,0.98c0.15472,0.79853,0.26312,1.60465,0.32489,2.41433
	S31.6518,6.86459,31.62,7.67734v4.955v4.955c0.03345,0.81257,0.01997,1.6257-0.04013,2.43538
	c-0.0601,0.80968-0.16682,1.61589-0.31987,2.41462c-0.215,0.565-0.6775,0.8475-1.23,0.98875
	c-0.5525,0.14125-1.195,0.14125-1.77,0.14125h-0.105H28.05v0.78v0.78c0,0,0.8925-0.04,2.035-0.08c1.1425-0.04,2.535-0.08,3.535-0.08
	c1.13,0,2.5775,0.0375,3.7425,0.075c1.165,0.0375,2.0475,0.075,2.0475,0.075v-0.775v-0.775h-0.105H39.2
	c-0.57,0-1.21,0-1.7625-0.14125C36.885,23.28485,36.42,23.00235,36.2,22.43735c-0.14883-0.79925-0.2526-1.60558-0.31102-2.41518
	c-0.05843-0.8096-0.07151-1.62248-0.03897-2.43482v-4.955v-4.955C35.81582,6.8652,35.82724,6.05241,35.884,5.24281
	S36.04284,3.62678,36.19,2.82734z"/>
<path class="st0" d="M42.76,0.17734v3.235v3.235h0.77h0.77v-0.1v-0.1c0.07-2.105,0.5075-3.2025,1.3825-3.77375
	S47.87,2.05735,49.69,2.05735h0.185h0.185c0.45,0,0.8875,0,1.255,0.04s0.665,0.12,0.835,0.28
	c0.05824,0.06377,0.10185,0.13824,0.1291,0.21829s0.03813,0.16566,0.0309,0.25171v8.5v8.5c0,1.265-0.0875,2.1575-0.62,2.7525
	c-0.5325,0.595-1.51,0.8925-3.29,0.9675h-0.1h-0.1v0.78v0.78c0,0,1.0375-0.0375,2.375-0.075c1.3375-0.0375,2.975-0.075,4.175-0.075
	c0.915,0,2.395,0.0375,3.64625,0.075c1.25125,0.0375,2.27375,0.075,2.27375,0.075v-0.765v-0.765h-0.105H60.46
	c-1.775-0.075-2.7525-0.3725-3.28625-0.9675c-0.53375-0.595-0.62375-1.4875-0.62375-2.7525v-8.5v-8.5
	c-0.00251-0.07885,0.01166-0.1564,0.04062-0.22796c0.02896-0.07156,0.07272-0.13714,0.12938-0.19204
	c0.205-0.205,0.59-0.3025,1.03625-0.3475c0.44625-0.045,0.95375-0.0375,1.40375-0.0325h0.255h0.255
	c1.775,0,2.9475,0.25,3.7025,0.925s1.0925,1.775,1.1975,3.475v0.095v0.095h0.775H66.12v-3.245v-3.245c0,0-2.25,0.015-4.835,0.03
	s-5.505,0.03-6.845,0.03s-4.26-0.015-6.845-0.03C45.01,0.19234,42.76,0.17734,42.76,0.17734z"/>
<path class="st0" d="M24.62,23.56734c-0.69632-0.01604-1.36859-0.19538-1.96815-0.51229
	c-0.59955-0.31691-1.12639-0.77139-1.53185-1.33772l-3.7-4.23l-3.7-4.23c1.94-0.255,3.5075-1.0225,4.59-2.19
	c1.0825-1.1675,1.68-2.735,1.68-4.59c0.08089-1.05781-0.14886-2.09101-0.63021-2.9894S18.1455,1.82594,17.22,1.30734
	c-0.92317-0.44234-1.89458-0.76496-2.89074-0.96318S12.31218,0.07211,11.29,0.12734c-0.39,0-1.0525,0.02-1.875,0.04
	c-0.8225,0.02-1.805,0.04-2.835,0.04s-2.675-0.02-4.0625-0.04S0,0.12734,0,0.12734v0.785v0.785h0.155H0.31
	c0.59,0,1.215,0,1.73625,0.14s0.93875,0.42,1.11375,0.98c0.13162,0.75752,0.22423,1.52079,0.27764,2.2868
	S3.50523,6.63889,3.48,7.40735v5.09v5.09c0.01121,0.66743,0.00513,1.33492-0.01821,2.00181
	C3.43844,20.25605,3.39784,20.92233,3.34,21.58734c-0.01905,0.14541-0.04361,0.28999-0.07363,0.43343S3.20087,22.3065,3.16,22.44734
	c-0.18,0.56-0.6275,0.84-1.175,0.98c-0.5475,0.14-1.195,0.14-1.775,0.14H0.105H0v0.78v0.78c0,0,0.865-0.04,2.01875-0.08
	c1.15375-0.04,2.59625-0.08,3.75125-0.08c1,0,2.36,0.0375,3.47,0.07625s1.97,0.07875,1.97,0.08375v-0.78v-0.78h-0.155H10.9
	c-0.58,0-1.1975,0-1.7175-0.14c-0.52-0.14-0.9425-0.42-1.1325-0.98c-0.04325-0.14024-0.07994-0.28233-0.10997-0.42582
	S7.88662,21.73315,7.87,21.58734c-0.0575-0.61993-0.09877-1.24116-0.12377-1.86304C7.72122,19.10243,7.71247,18.47989,7.72,17.85734
	v-2.08v-2.08c0.69,0,1.065,0.04,1.35625,0.185c0.29125,0.145,0.49875,0.395,0.85375,0.815c0.065,0.08,0.135,0.165,0.21125,0.255
	s0.15875,0.185,0.24875,0.285l3.075,3.815l3.075,3.815l0.905,1.13l0.905,1.13c0,0,0.5-0.0225,1.11875-0.045
	c0.61875-0.0225,1.35625-0.045,1.83125-0.045c0.7,0,1.5675,0.0225,2.26,0.045c0.6925,0.0225,1.21,0.045,1.21,0.045v-0.765v-0.765
	l-0.075-0.015L24.62,23.56734z M7.72,11.99734v-4.53v-4.53c0-0.18,0-0.395,0.03625-0.5825S7.865,2.00734,8.01,1.93735
	c0.38627-0.02482,0.77313-0.03723,1.16-0.03723s0.77373,0.01241,1.16,0.03723c1.58,0,2.83,0.4625,3.685,1.3275
	s1.315,2.1325,1.315,3.7425c0,1.175-0.1575,2.1-0.48625,2.81625S14.015,11.04735,13.33,11.38735s-2.0875,0.4925-3.31875,0.56
	C8.78,12.01485,7.72,11.99734,7.72,11.99734z"/>
<path class="st0" d="M36.19,2.82734c0.215-0.56,0.6775-0.84,1.23-0.98c0.5525-0.14,1.195-0.14,1.77-0.14h0.105H39.4v-0.79v-0.79
	c0,0-1.11,0.025-2.39,0.05c-1.28,0.025-2.73,0.05-3.41,0.05s-2.07-0.025-3.29-0.05s-2.27-0.05-2.27-0.05v0.79v0.79h0.105h0.105
	c0.57,0,1.21,0,1.7625,0.14s1.0175,0.42,1.2375,0.98c0.15472,0.79853,0.26312,1.60465,0.32489,2.41433
	S31.6518,6.86459,31.62,7.67734v4.955v4.955c0.03345,0.81257,0.01997,1.6257-0.04013,2.43538
	c-0.0601,0.80968-0.16682,1.61589-0.31987,2.41462c-0.215,0.565-0.6775,0.8475-1.23,0.98875
	c-0.5525,0.14125-1.195,0.14125-1.77,0.14125h-0.105H28.05v0.78v0.78c0,0,0.8925-0.04,2.035-0.08c1.1425-0.04,2.535-0.08,3.535-0.08
	c1.13,0,2.5775,0.0375,3.7425,0.075c1.165,0.0375,2.0475,0.075,2.0475,0.075v-0.775v-0.775h-0.105H39.2
	c-0.57,0-1.21,0-1.7625-0.14125C36.885,23.28485,36.42,23.00235,36.2,22.43735c-0.14883-0.79925-0.2526-1.60558-0.31102-2.41518
	c-0.05843-0.8096-0.07151-1.62248-0.03897-2.43482v-4.955v-4.955C35.81582,6.8652,35.82724,6.05241,35.884,5.24281
	S36.04284,3.62678,36.19,2.82734z"/>
<path class="st0" d="M42.76,0.17734v3.235v3.235h0.77h0.77v-0.1v-0.1c0.07-2.105,0.5075-3.2025,1.3825-3.77375
	S47.87,2.05735,49.69,2.05735h0.185h0.185c0.45,0,0.8875,0,1.255,0.04s0.665,0.12,0.835,0.28
	c0.05824,0.06377,0.10185,0.13824,0.1291,0.21829s0.03813,0.16566,0.0309,0.25171v8.5v8.5c0,1.265-0.0875,2.1575-0.62,2.7525
	c-0.5325,0.595-1.51,0.8925-3.29,0.9675h-0.1h-0.1v0.78v0.78c0,0,1.0375-0.0375,2.375-0.075c1.3375-0.0375,2.975-0.075,4.175-0.075
	c0.915,0,2.395,0.0375,3.64625,0.075c1.25125,0.0375,2.27375,0.075,2.27375,0.075v-0.765v-0.765h-0.105H60.46
	c-1.775-0.075-2.7525-0.3725-3.28625-0.9675c-0.53375-0.595-0.62375-1.4875-0.62375-2.7525v-8.5v-8.5
	c-0.00251-0.07885,0.01166-0.1564,0.04062-0.22796c0.02896-0.07156,0.07272-0.13714,0.12938-0.19204
	c0.205-0.205,0.59-0.3025,1.03625-0.3475c0.44625-0.045,0.95375-0.0375,1.40375-0.0325h0.255h0.255
	c1.775,0,2.9475,0.25,3.7025,0.925s1.0925,1.775,1.1975,3.475v0.095v0.095h0.775H66.12v-3.245v-3.245c0,0-2.25,0.015-4.835,0.03
	s-5.505,0.03-6.845,0.03s-4.26-0.015-6.845-0.03C45.01,0.19234,42.76,0.17734,42.76,0.17734z"/>
<path class="st0" d="M24.62,23.56734c-0.69632-0.01604-1.36859-0.19538-1.96815-0.51229
	c-0.59955-0.31691-1.12639-0.77139-1.53185-1.33772l-3.7-4.23l-3.7-4.23c1.94-0.255,3.5075-1.0225,4.59-2.19
	c1.0825-1.1675,1.68-2.735,1.68-4.59c0.08089-1.05781-0.14886-2.09101-0.63021-2.9894S18.1455,1.82594,17.22,1.30734
	c-0.92317-0.44234-1.89458-0.76496-2.89074-0.96318S12.31218,0.07211,11.29,0.12734c-0.39,0-1.0525,0.02-1.875,0.04
	c-0.8225,0.02-1.805,0.04-2.835,0.04s-2.675-0.02-4.0625-0.04S0,0.12734,0,0.12734v0.785v0.785h0.155H0.31
	c0.59,0,1.215,0,1.73625,0.14s0.93875,0.42,1.11375,0.98c0.13162,0.75752,0.22423,1.52079,0.27764,2.2868
	S3.50523,6.63889,3.48,7.40735v5.09v5.09c0.01121,0.66743,0.00513,1.33492-0.01821,2.00181
	C3.43844,20.25605,3.39784,20.92233,3.34,21.58734c-0.01905,0.14541-0.04361,0.28999-0.07363,0.43343S3.20087,22.3065,3.16,22.44734
	c-0.18,0.56-0.6275,0.84-1.175,0.98c-0.5475,0.14-1.195,0.14-1.775,0.14H0.105H0v0.78v0.78c0,0,0.865-0.04,2.01875-0.08
	c1.15375-0.04,2.59625-0.08,3.75125-0.08c1,0,2.36,0.0375,3.47,0.07625s1.97,0.07875,1.97,0.08375v-0.78v-0.78h-0.155H10.9
	c-0.58,0-1.1975,0-1.7175-0.14c-0.52-0.14-0.9425-0.42-1.1325-0.98c-0.04325-0.14024-0.07994-0.28233-0.10997-0.42582
	S7.88662,21.73315,7.87,21.58734c-0.0575-0.61993-0.09877-1.24116-0.12377-1.86304C7.72122,19.10243,7.71247,18.47989,7.72,17.85734
	v-2.08v-2.08c0.69,0,1.065,0.04,1.35625,0.185c0.29125,0.145,0.49875,0.395,0.85375,0.815c0.065,0.08,0.135,0.165,0.21125,0.255
	s0.15875,0.185,0.24875,0.285l3.075,3.815l3.075,3.815l0.905,1.13l0.905,1.13c0,0,0.5-0.0225,1.11875-0.045
	c0.61875-0.0225,1.35625-0.045,1.83125-0.045c0.7,0,1.5675,0.0225,2.26,0.045c0.6925,0.0225,1.21,0.045,1.21,0.045v-0.765v-0.765
	l-0.075-0.015L24.62,23.56734z M7.72,11.99734v-4.53v-4.53c0-0.18,0-0.395,0.03625-0.5825S7.865,2.00734,8.01,1.93735
	c0.38627-0.02482,0.77313-0.03723,1.16-0.03723s0.77373,0.01241,1.16,0.03723c1.58,0,2.83,0.4625,3.685,1.3275
	s1.315,2.1325,1.315,3.7425c0,1.175-0.1575,2.1-0.48625,2.81625S14.015,11.04735,13.33,11.38735s-2.0875,0.4925-3.31875,0.56
	C8.78,12.01485,7.72,11.99734,7.72,11.99734z"/>
<path class="st0" d="M81.23,4.86734c-0.23803-0.27822-0.42107-0.59517-0.54308-0.93409
	C80.56491,3.59433,80.50393,3.23344,80.51,2.86734c-0.01263-0.38702,0.05212-0.76857,0.18642-1.12384
	C80.8307,1.38823,81.03452,1.05924,81.3,0.77734c0.2457-0.23841,0.53461-0.42169,0.84765-0.54248S82.79784,0.05578,83.14,0.06734
	c0.57677-0.06578,1.12795,0.10229,1.55685,0.43027c0.4289,0.32798,0.73552,0.81587,0.82316,1.38973h-0.645H84.23
	c-0.05441-0.23058-0.18599-0.42625-0.36318-0.56269S83.46684,1.11101,83.23,1.11734c-0.445,0-0.7775,0.185-0.99876,0.49125
	C82.01,1.91485,81.9,2.34235,81.9,2.82735s0.12749,0.915,0.36,1.22375c0.2325,0.30875,0.57,0.49625,0.99,0.49625
	c0.28633,0.01862,0.55576-0.0744,0.7639-0.24306c0.20813-0.16866,0.35497-0.41297,0.3961-0.69694l0,0l0,0h-0.5h-0.5v-0.5v-0.5h1.105
	h1.105v1.44v1.44h-0.465H84.69l-0.035-0.32l-0.035-0.32l0,0l0,0c-0.16312,0.25848-0.39067,0.46167-0.65367,0.5949
	c-0.26299,0.13323-0.56143,0.19649-0.86633,0.1751c-0.34484,0.01298-0.68407-0.0489-0.99622-0.17683
	C81.79163,5.31258,81.50655,5.11859,81.27,4.86734"/>
<path class="st0" d="M86,3.58734c0.00047-0.56609,0.23036-1.0784,0.60165-1.44906c0.37128-0.37066,0.88398-0.59969,1.45007-0.59921
	c0.56541,0.00048,1.07725,0.22984,1.44784,0.60043C89.87016,2.5101,90.09952,3.02193,90.1,3.58734
	c-0.00048,0.56609-0.23037,1.0784-0.60165,1.44906c-0.37129,0.37066-0.88399,0.59969-1.45007,0.59921
	c-0.56542-0.00048-1.07725-0.22984-1.44785-0.60043C86.22984,4.66459,86.00047,4.15276,86,3.58734 M88.87,3.58734
	c0-0.35-0.0725-0.645-0.21125-0.8525C88.52,2.52734,88.315,2.40734,88.05,2.40734s-0.4675,0.12-0.60375,0.3275
	c-0.13625,0.2075-0.20625,0.5025-0.20625,0.8525s0.0675,0.64,0.2025,0.8425c0.13499,0.2025,0.33749,0.3175,0.6075,0.3175
	c0.27,0,0.475-0.1175,0.6125-0.32125C88.8,4.22234,88.87,3.93234,88.87,3.58734"/>
<polygon class="st0" points="90.52,0.12734 91.14,0.12734 91.76,0.12734 91.76,2.81234 91.76,5.49734 91.14,5.49734 90.52,5.49734 
	90.52,2.81234 "/>
<path class="st0" d="M92.35001,0.12734H92.985h0.635v0.5v0.5h-0.635h-0.63499v-0.5V0.12734z M92.35001,1.65734H92.985h0.635v1.92
	v1.92h-0.635h-0.63499v-1.92V1.65734z"/>
<path class="st0" d="M93.93,4.24734h0.575h0.575c0.01193,0.17079,0.09196,0.32058,0.21171,0.42468
	c0.11974,0.10411,0.27921,0.16253,0.45,0.1506c0.00808-0.00056,0.01614-0.00129,0.02419-0.00217
	c0.00806-0.00088,0.01609-0.00192,0.0241-0.00311c0.18,0,0.32999-0.0325,0.435-0.09625c0.105-0.06375,0.165-0.15875,0.165-0.28375
	s-0.1175-0.22-0.30125-0.295c-0.18375-0.075-0.43375-0.13-0.69875-0.175c-0.335-0.055-0.68-0.1275-0.94125-0.3
	c-0.26125-0.1725-0.43874-0.445-0.43874-0.9s0.1875-0.7625,0.48875-0.95625C94.8,1.61734,95.215,1.53734,95.67001,1.53734
	c0.545,0,0.96249,0.12,1.25124,0.33375S97.37,2.39234,97.40001,2.76734h-0.55H96.3c-0.025-0.17-0.095-0.2825-0.20126-0.3525
	c-0.10625-0.07-0.24875-0.0975-0.41875-0.0975c-0.17001,0-0.30251,0.03-0.3925,0.09c-0.09,0.06-0.1375,0.15-0.1375,0.27
	s0.1075,0.195,0.27625,0.25125C95.595,2.98484,95.825,3.02234,96.07,3.06734c0.34,0.06,0.7075,0.1325,0.99,0.3125
	c0.2825,0.18,0.48,0.4675,0.48,0.9575s-0.18501,0.81-0.49625,1.0075C96.7325,5.54234,96.295,5.61734,95.79,5.61734
	c-0.505,0-0.9625-0.13-1.29751-0.36625C94.15749,5.01484,93.945,4.67234,93.93,4.24734"/>
<path class="st0" d="M97.8,4.42734c0-0.425,0.1675-0.7025,0.435-0.88625s0.635-0.27375,1.035-0.32375s0.65-0.0925,0.8-0.155
	c0.15-0.0625,0.2-0.145,0.2-0.275s-0.03751-0.2325-0.12125-0.3025s-0.21375-0.1075-0.39874-0.1075s-0.3325,0.0425-0.43875,0.125
	c-0.10625,0.0825-0.17125,0.205-0.19125,0.365h-0.56001h-0.56c0-0.355,0.145-0.685,0.435-0.92625s0.725-0.39375,1.305-0.39375
	c0.22028-0.01718,0.44032,0.00236,0.65151,0.05643c0.21119,0.05407,0.41355,0.14266,0.59849,0.26357
	c0.16623,0.13,0.29439,0.29731,0.37691,0.48471s0.11942,0.3949,0.10309,0.60529v0.97v0.97c0,0.155,0,0.275,0.01749,0.365
	c0.0175,0.09,0.05251,0.15,0.12251,0.185l0,0l0,0h-0.595h-0.595c-0.03504-0.06659-0.06278-0.13654-0.0829-0.20861
	c-0.02011-0.07207-0.03259-0.14628-0.0371-0.22139l0,0l0,0c-0.12852,0.1844-0.30161,0.3272-0.49853,0.41875
	C99.60457,5.52764,99.38383,5.56793,99.16,5.54734c-0.31446,0.0443-0.6171-0.04306-0.85221-0.2201
	c-0.23511-0.17704-0.40267-0.44378-0.44697-0.75823c-0.00447-0.03174-0.00761-0.06363-0.00941-0.09561
	c-0.00181-0.03197-0.00227-0.06402-0.0014-0.09606 M100.32001,4.07734v-0.205v-0.205
	c-0.10118,0.04436-0.20456,0.0833-0.30971,0.11668s-0.21206,0.0612-0.32029,0.08332c-0.235,0.055-0.4025,0.1125-0.51125,0.1925
	s-0.15874,0.1825-0.15874,0.3275s0.0575,0.2525,0.1525,0.32375s0.2275,0.10625,0.3775,0.10625
	c0.19233,0.01934,0.37429-0.04111,0.513-0.15448c0.13871-0.11337,0.23418-0.27965,0.25352-0.47198
	c0.00106-0.01056,0.00188-0.02114,0.00246-0.03173s0.00092-0.0212,0.00102-0.03181"/>
<path class="st0" d="M102.03001,1.65734h0.59h0.59v0.26v0.26l0,0l0,0c0.12828-0.20386,0.30538-0.36653,0.51061-0.47691
	c0.20523-0.11038,0.43859-0.16845,0.67939-0.16309c0.36443-0.00759,0.69743,0.13326,0.94122,0.36711s0.39838,0.5607,0.40596,0.92513
	c0.00058,0.02801,0.00027,0.05602-0.00093,0.08399c-0.0012,0.02797-0.00328,0.05591-0.00626,0.08376v1.25v1.25H105.125h-0.615
	v-1.125v-1.125c0-0.205-0.05-0.3775-0.15-0.49875s-0.25-0.19125-0.45-0.19125c-0.2,0-0.3675,0.085-0.485,0.23
	s-0.185,0.35-0.185,0.59v1.06v1.06H102.625h-0.615l0.01-1.92L102.03001,1.65734z"/>
<path class="st0" d="M106.13,3.58734c0.0396-0.56747,0.30548-1.06517,0.70332-1.41109
	c0.39784-0.34593,0.92764-0.54008,1.49512-0.50047c0.51232,0.03576,0.97233,0.25749,1.3132,0.59836s0.56261,0.80088,0.59837,1.3132
	c-0.03961,0.56747-0.30548,1.06517-0.70332,1.41109c-0.39783,0.34592-0.92764,0.54008-1.49511,0.50047
	c-0.51232-0.03576-0.97234-0.25749-1.31321-0.59836C106.38749,4.55968,106.16576,4.09967,106.13,3.58734 M109.00001,3.58734
	c0-0.35-0.07-0.645-0.2075-0.8525c-0.1375-0.2075-0.3425-0.3275-0.6125-0.3275c-0.27,0-0.4725,0.12-0.6075,0.3275
	c-0.135,0.2075-0.2025,0.5025-0.2025,0.8525s0.07,0.64,0.20625,0.8425c0.13625,0.2025,0.33875,0.3175,0.60375,0.3175
	s0.46999-0.1175,0.60875-0.32125C108.92751,4.22234,109.00001,3.93234,109.00001,3.58734"/>
<path class="st0" d="M111.85001,2.80734c-0.06905-0.70077,0.15249-1.36318,0.56647-1.86767
	c0.41399-0.50448,1.02043-0.85103,1.72121-0.92008c0.04359-0.00429,0.08727-0.00746,0.131-0.00951
	c0.04373-0.00204,0.08752-0.00296,0.13132-0.00275c0.52834-0.0451,1.02836,0.11993,1.41503,0.42747s0.66,0.75759,0.73497,1.28253
	h-0.33h-0.33c-0.07027-0.35301-0.26866-0.65062-0.53904-0.85117s-0.61275-0.30404-0.97096-0.26883c-0.59,0-1.05,0.25-1.3625,0.65125
	s-0.47749,0.95375-0.47749,1.55875s0.1825,1.155,0.505,1.55375s0.785,0.64625,1.345,0.64625
	c0.411,0.01934,0.79092-0.12975,1.07293-0.38642c0.28201-0.25667,0.46611-0.62092,0.48544-1.03192
	c0.00048-0.01027,0.00086-0.02055,0.00113-0.03083c0.00027-0.01028,0.00043-0.02056,0.0005-0.03084h0.335h0.335
	c-0.01115,0.28322-0.07463,0.55933-0.18483,0.81534c-0.1102,0.256-0.26713,0.4919-0.46517,0.69466
	c-0.21827,0.19694-0.47155,0.34586-0.74362,0.44109s-0.56293,0.13676-0.85638,0.11891
	c-0.69864,0.00094-1.33152-0.2814-1.78997-0.73862c-0.45846-0.45723-0.74249-1.08935-0.74342-1.78798
	c-0.00006-0.04399,0.00102-0.08796,0.00326-0.13187C111.8421,2.89495,111.84548,2.8511,111.85001,2.80734"/>
<path class="st0" d="M117.06001,3.55734c-0.03784-0.51777,0.13777-1.00185,0.45229-1.36596
	c0.31451-0.3641,0.76792-0.60823,1.28569-0.64606c0.51777-0.03784,1.00185,0.13777,1.36596,0.45229s0.60822,0.76793,0.64606,1.28569
	c0.00333,0.04561,0.005,0.09132,0.005,0.13702s-0.00166,0.09141-0.005,0.13702c0.03783,0.51777-0.13778,1.00185-0.45229,1.36596
	c-0.31451,0.3641-0.76793,0.60823-1.28569,0.64606c-0.51777,0.03784-1.00186-0.13777-1.36596-0.45229
	c-0.36411-0.31451-0.60823-0.76793-0.64606-1.28569c-0.00333-0.04561-0.005-0.09132-0.005-0.13702
	S117.05667,3.60296,117.06001,3.55734 M120.19,3.55734c0-0.425-0.105-0.81-0.31375-1.08875S119.355,2.01734,118.94,2.01734
	s-0.7275,0.1725-0.93626,0.45125C117.795,2.74734,117.69,3.13234,117.69,3.55734s0.105,0.81,0.31374,1.08875
	c0.20876,0.27875,0.52126,0.45125,0.93626,0.45125s0.7275-0.17,0.93625-0.4475S120.19,3.98734,120.19,3.55734"/>
<polygon class="st0" points="121.44,0.12734 121.745,0.12734 122.05,0.12734 122.05,2.81234 122.05,5.49734 121.745,5.49734 
	121.44,5.49734 121.44,2.81234 "/>
<polygon class="st0" points="122.91,0.12734 123.215,0.12734 123.52,0.12734 123.52,2.81234 123.52,5.49734 123.215,5.49734 
	122.91,5.49734 122.91,2.81234 "/>
<path class="st0" d="M124.15,3.55734c-0.02785-0.52393,0.15929-1.00955,0.48439-1.37115s0.78814-0.59918,1.31207-0.62703
	c0.00725-0.00039,0.0145-0.00073,0.02175-0.00103c0.00726-0.0003,0.01452-0.00056,0.02178-0.00078
	c0.58,0,1.0275,0.225,1.32999,0.61125s0.46,0.93375,0.46,1.57875h-1.5h-1.5c0,0.39,0.12,0.735,0.33749,0.9825
	c0.2175,0.2475,0.5325,0.3975,0.9225,0.3975c0.25274,0.0232,0.49412-0.05011,0.68538-0.19132
	c0.19125-0.14121,0.33239-0.35031,0.38463-0.59868h0.295h0.295c-0.06838,0.39785-0.28207,0.73734-0.57931,0.97012
	c-0.29725,0.23278-0.67805,0.35886-1.0807,0.32988c-0.51637,0.00401-0.98549-0.20166-1.32651-0.53742
	c-0.34103-0.33576-0.55396-0.80162-0.55796-1.318c-0.00019-0.02412,0.00009-0.04823,0.00083-0.07233
	c0.00075-0.0241,0.00196-0.04819,0.00364-0.07225 M124.8,3.32735h1.165h1.165c0-0.39-0.1075-0.7025-0.3025-0.9175
	c-0.195-0.215-0.4775-0.3325-0.82751-0.3325s-0.62751,0.135-0.82876,0.35875C124.96999,2.65985,124.84499,2.97235,124.8,3.32735"/>
<path class="st0" d="M128.26999,5.71734h0.28h0.28c0.03,0.215,0.14751,0.3625,0.3325,0.45625s0.4375,0.13375,0.7375,0.13375
	s0.57751-0.08,0.78001-0.245s0.32999-0.415,0.32999-0.755v-0.275v-0.275l0,0l0,0c-0.12473,0.19568-0.29623,0.35142-0.49457,0.45662
	c-0.19833,0.1052-0.42346,0.15986-0.65543,0.15338c-0.48305-0.01398-0.91469-0.22244-1.22208-0.54816
	c-0.30739-0.32572-0.49052-0.7687-0.47655-1.25175c0.00063-0.02173,0.00166-0.04344,0.0031-0.06513
	c0.00145-0.02169,0.00328-0.04334,0.00552-0.06497c-0.05266-0.47204,0.09099-0.92073,0.36583-1.26458
	c0.27483-0.34385,0.68083-0.58286,1.15286-0.63552c0.02347-0.00262,0.047-0.00475,0.07056-0.0064s0.04715-0.00281,0.07076-0.00349
	c0.23364-0.01211,0.46208,0.0367,0.66539,0.13664s0.38148,0.25099,0.5146,0.44336l0,0l0,0v-0.245v-0.245h0.30501H131.62v1.835v1.835
	c0,0.5-0.17,0.875-0.46875,1.125c-0.29874,0.25-0.72624,0.375-1.24126,0.375c-0.515,0-0.91-0.1-1.18375-0.28375
	C128.45248,6.31984,128.29999,6.05234,128.26999,5.71734 M131.04999,3.40735c0-0.425-0.09-0.7675-0.2825-1.00375
	C130.575,2.16735,130.28,2.03735,129.87,2.03735c-0.40999,0-0.685,0.1425-0.8575,0.39s-0.24251,0.6-0.24251,1.02
	s0.095,0.77,0.28001,1.015c0.185,0.245,0.45999,0.385,0.81999,0.385c0.45,0,0.745-0.155,0.92751-0.4125
	C130.98,4.17734,131.04999,3.81735,131.04999,3.40735"/>
<path class="st0" d="M132.22,3.55734c-0.02785-0.52393,0.1593-1.00955,0.48439-1.37115
	c0.3251-0.3616,0.78815-0.59918,1.31207-0.62703c0.00725-0.00039,0.01451-0.00073,0.02176-0.00103
	c0.00726-0.0003,0.01451-0.00056,0.02177-0.00078c0.58,0,1.02751,0.225,1.33,0.61125
	c0.30251,0.38625,0.45999,0.93375,0.45999,1.57875h-1.5h-1.5c0.02501,0.39,0.145,0.735,0.35625,0.9825
	c0.21126,0.2475,0.51375,0.3975,0.90375,0.3975c0.25275,0.0232,0.49413-0.05011,0.68538-0.19132
	c0.19127-0.14121,0.3324-0.35031,0.38463-0.59868h0.295h0.295c-0.06837,0.39785-0.28206,0.73734-0.5793,0.97012
	c-0.29724,0.23278-0.67805,0.35886-1.0807,0.32988c-0.51637,0.00401-0.98547-0.20165-1.32651-0.53742
	c-0.34102-0.33576-0.55396-0.80162-0.55797-1.31799c-0.00018-0.02412,0.00009-0.04824,0.00084-0.07234
	c0.00075-0.0241,0.00195-0.04819,0.00363-0.07225 M132.86998,3.32735h1.16501h1.16499c0-0.39-0.1075-0.7025-0.30249-0.9175
	c-0.19501-0.215-0.47751-0.3325-0.82751-0.3325s-0.6275,0.135-0.82875,0.35875
	C133.03998,2.65985,132.91498,2.97235,132.86998,3.32735"/>
<path class="st0" d="M137.40999,3.55734c-0.03783-0.51777,0.13779-1.00185,0.45229-1.36596
	c0.31451-0.3641,0.76793-0.60823,1.28569-0.64606c0.51778-0.03784,1.00186,0.13777,1.36597,0.45229s0.60823,0.76793,0.64606,1.28569
	c0.00334,0.04561,0.005,0.09132,0.005,0.13702s-0.00166,0.09141-0.005,0.13702c0.03784,0.51777-0.13777,1.00185-0.45229,1.36596
	c-0.3145,0.3641-0.76791,0.60823-1.28569,0.64606c-0.51776,0.03784-1.00185-0.13777-1.36595-0.45229
	s-0.60823-0.76793-0.64607-1.28569c-0.00333-0.04561-0.00499-0.09132-0.00499-0.13702S137.40666,3.60296,137.40999,3.55734
	 M140.52998,3.55734c0-0.425-0.105-0.81-0.3125-1.08875c-0.20749-0.27875-0.5175-0.45125-0.92751-0.45125
	s-0.72499,0.1725-0.9375,0.45125c-0.21249,0.27875-0.32249,0.66375-0.32249,1.08875s0.1075,0.81,0.31876,1.08875
	c0.21124,0.27875,0.52625,0.45125,0.94124,0.45125c0.41501,0,0.72501-0.17,0.93126-0.4475S140.52998,3.98734,140.52998,3.55734"/>
<path class="st0" d="M141.44,1.61734h0.265h0.265v-0.31v-0.31c0-0.335,0.095-0.5625,0.2675-0.70625s0.4225-0.20375,0.7325-0.20375
	h0.155h0.155v0.26v0.26h-0.09999H143.08c-0.19499,0-0.3275,0.025-0.41124,0.09c-0.08376,0.065-0.11876,0.17-0.11876,0.33v0.295
	v0.295h0.36h0.36v0.255v0.255h-0.325H142.62v1.695v1.695H142.315h-0.30501v-1.695v-1.695h-0.265h-0.265l-0.01999-0.255
	L141.44,1.61734z"/>
<path class="st0" d="M80.51,11.57734c-0.08563-0.94052,0.21807-1.8267,0.77831-2.49917s1.37701-1.1312,2.31753-1.21683
	c0.05554-0.00506,0.1112-0.00875,0.16691-0.01109c0.05571-0.00233,0.11148-0.00331,0.16726-0.00291
	c0.73675-0.07274,1.43363,0.15906,1.96539,0.59314s0.89838,1.07045,0.97462,1.80685h-0.715H85.45
	c-0.05648-0.36576-0.24957-0.67855-0.52074-0.89226C84.65809,9.14138,84.30883,9.02676,83.94,9.05734
	c-0.66,0-1.1475,0.275-1.47,0.7275c-0.3225,0.4525-0.48,1.0825-0.48,1.7925s0.18999,1.3375,0.535,1.7875s0.845,0.7225,1.465,0.7225
	c0.38381,0.02961,0.74532-0.09435,1.02262-0.32123c0.27731-0.22688,0.4704-0.55669,0.51738-0.93877h0.705h0.705
	c-0.0174,0.32112-0.09587,0.63283-0.22825,0.91965c-0.13239,0.28683-0.31868,0.54877-0.55175,0.77035
	c-0.29685,0.26573-0.64046,0.46696-1.0093,0.59614s-0.76292,0.18631-1.1607,0.16386
	c-0.95269-0.00026-1.81509-0.38664-2.43925-1.01114c-0.62416-0.62449-1.01009-1.4871-1.00983-2.43979
	c0.00001-0.04155,0.00077-0.0831,0.00228-0.12462c0.00152-0.04152,0.00378-0.08301,0.00679-0.12445"/>
<path class="st0" d="M87.35001,12.56734c-0.04519-0.73868,0.21331-1.42575,0.66777-1.93944
	c0.45447-0.51369,1.1049-0.85401,1.84358-0.8992s1.42574,0.21331,1.93944,0.66778s0.85402,1.1049,0.89921,1.84358
	c0.00333,0.0545,0.005,0.10907,0.005,0.16364c0,0.05457-0.00166,0.10915-0.005,0.16364
	c0.04519,0.73868-0.21331,1.42575-0.66778,1.93944c-0.45447,0.51369-1.1049,0.85401-1.84357,0.8992
	c-0.73869,0.04519-1.42575-0.21331-1.93945-0.66778c-0.51369-0.45447-0.85401-1.1049-0.8992-1.84358
	c-0.00333-0.0545-0.005-0.10907-0.005-0.16364C87.345,12.67642,87.34667,12.62184,87.35001,12.56734 M91.35001,12.56734
	c0-0.5-0.1175-0.92-0.33875-1.215s-0.54625-0.465-0.96125-0.465s-0.74001,0.17-0.96126,0.465
	c-0.22124,0.295-0.33875,0.715-0.33875,1.215s0.115,0.9175,0.335,1.21c0.22,0.2925,0.545,0.46,0.965,0.46
	c0.42,0,0.745-0.1675,0.965-0.46C91.235,13.48485,91.35001,13.06734,91.35001,12.56734"/>
<path class="st0" d="M93.34,9.99734h0.64h0.64v0.345v0.345l0,0l0,0c0.15364-0.26428,0.37335-0.47601,0.63105-0.61956
	c0.25769-0.14355,0.55337-0.21891,0.85895-0.21044c0.30526-0.00511,0.59742,0.08077,0.84469,0.23749
	s0.44964,0.38428,0.57531,0.66251l0,0l0,0c0.15833-0.27631,0.3841-0.50014,0.64991-0.65548S98.75155,9.85967,99.07,9.85734
	c0.44398-0.02321,0.85534,0.13574,1.1615,0.41149c0.30617,0.27575,0.50714,0.66829,0.53035,1.11227
	c0.00259,0.04945,0.00288,0.09897,0.00091,0.14839c-0.00198,0.04943-0.00623,0.09876-0.01276,0.14785v1.725v1.725h-0.68h-0.68v-1.61
	v-1.61c0-0.29-0.07-0.51-0.2025-0.6575s-0.3275-0.2225-0.5775-0.2225s-0.48,0.11-0.6475,0.305
	c-0.1675,0.195-0.2725,0.475-0.2725,0.815v1.5v1.5h-0.64h-0.64v-1.62v-1.62c0-0.29-0.0725-0.51-0.2075-0.6575
	s-0.3325-0.2225-0.5825-0.2225s-0.48,0.11-0.6475,0.305c-0.1675,0.195-0.2725,0.475-0.2725,0.815v1.5v1.5h-0.68h-0.68v-2.575
	V9.99734z"/>
<path class="st0" d="M101.68,9.99734h0.655h0.655v0.32v0.32l0,0l0,0c0.16997-0.24881,0.39684-0.4465,0.65652-0.58064
	s0.5522-0.20474,0.85348-0.19936c0.68,0,1.235,0.2775,1.62,0.755c0.385,0.4775,0.60001,1.155,0.60001,1.955
	s-0.2225,1.4775-0.61,1.955c-0.3875,0.4775-0.94,0.755-1.6,0.755c-0.29417,0.01928-0.5823-0.04065-0.83782-0.16668
	c-0.25552-0.12604-0.47845-0.31818-0.64218-0.56332l0,0l0,0v1.13v1.13h-0.68h-0.68l0.005-3.405L101.68,9.99734z M105.38,12.60734
	c0-0.5-0.085-0.9125-0.275-1.2c-0.19-0.2875-0.485-0.45-0.905-0.45c-0.42001,0-0.71751,0.1825-0.91,0.48
	c-0.1925,0.2975-0.28,0.71-0.28,1.17s0.1075,0.845,0.31625,1.115s0.51875,0.425,0.92375,0.425s0.68749-0.1425,0.86874-0.40625
	S105.37999,13.09234,105.38,12.60734"/>
<path class="st0" d="M110.62,15.12734v-0.3v-0.3l0,0l0,0c-0.16162,0.24544-0.38242,0.43862-0.63616,0.56636
	c-0.25374,0.12774-0.54043,0.19002-0.83384,0.17364c-0.45996,0.03319-0.88983-0.12319-1.21301-0.40287
	c-0.32318-0.27967-0.53967-0.68264-0.57286-1.1426c-0.00366-0.05074-0.005-0.10159-0.00402-0.1524
	c0.00098-0.05081,0.00428-0.10157,0.0099-0.15213v-1.71v-1.71h0.675h0.675v1.595v1.595c0,0.3,0.0675,0.5325,0.2075,0.69
	s0.3525,0.24,0.6425,0.24c0.27612,0.00356,0.52754-0.10513,0.71082-0.28375s0.29842-0.42715,0.30199-0.70327
	c0.00037-0.02896-0.00051-0.05791-0.00266-0.08677c-0.00214-0.02886-0.00552-0.05762-0.01015-0.08621v-1.5v-1.5h0.68h0.68v2.585
	v2.585h-0.655H110.62z"/>
<path class="st0" d="M112.52,9.99734h0.355h0.355v-0.8v-0.8h0.665h0.665v0.8v0.8H115h0.44v0.45v0.45H115h-0.43999v1.36v1.36
	c-0.01786,0.12297,0.01582,0.24155,0.0847,0.33384s0.17298,0.1583,0.29595,0.17616c0.02145,0.00311,0.04306,0.00467,0.06467,0.00467
	s0.04323-0.00156,0.06467-0.00467h0.2h0.2v0.5v0.5c0,0-0.0775,0-0.2225,0c-0.145,0-0.3575,0-0.62749,0
	c-0.27,0-0.6175-0.065-0.89751-0.25125c-0.28-0.18625-0.49249-0.49375-0.49249-0.97875v-1.5v-1.5h-0.355h-0.355l-0.00001-0.45
	V9.99734z"/>
<path class="st0" d="M116.14,7.98734h0.68h0.68v0.605v0.605h-0.68h-0.68v-0.605V7.98734z M116.14,9.98734h0.68h0.68v2.57v2.57h-0.68
	h-0.68v-2.57V9.98734z"/>
<path class="st0" d="M119.71,10.69734L119.71,10.69734L119.71,10.69734c0.15489-0.27107,0.37892-0.48762,0.64222-0.63312
	c0.26329-0.1455,0.56584-0.21997,0.87778-0.20688c0.48601-0.00201,0.92682,0.19316,1.24663,0.51033
	c0.31982,0.31718,0.51863,0.75636,0.52065,1.24236c0.00011,0.02793-0.00043,0.05585-0.00165,0.08374
	c-0.00121,0.02789-0.00308,0.05576-0.00562,0.08357v1.675v1.675h-0.675h-0.675v-1.575v-1.575
	c0.02518-0.23337-0.04662-0.45485-0.18304-0.62428c-0.13644-0.16943-0.3375-0.28682-0.57086-0.312
	c-0.0226-0.00244-0.04527-0.00397-0.06798-0.00459c-0.0227-0.00062-0.04543-0.00033-0.06812,0.00087
	c-0.29494,0.01771-0.55479,0.15329-0.73647,0.35818s-0.28519,0.47909-0.26748,0.77403
	c0.00047,0.00798,0.00105,0.01595,0.0017,0.02392c0.00066,0.00797,0.0014,0.01592,0.00224,0.02387v1.455v1.455h-0.68h-0.68v-2.565
	v-2.565h0.665h0.665l-0.005,0.35L119.71,10.69734z"/>
<path class="st0" d="M123.73,15.27734h0.675h0.675c0.055,0.16,0.155,0.3025,0.31625,0.405s0.38375,0.165,0.68375,0.165
	s0.585-0.0925,0.795-0.2725s0.345-0.4475,0.345-0.7975v-0.28v-0.28l0,0l0,0c-0.16457,0.1987-0.37066,0.35348-0.60006,0.4562
	c-0.2294,0.10272-0.48212,0.15337-0.73994,0.1438c-0.63776-0.01262-1.21004-0.28256-1.61971-0.70878
	c-0.40967-0.42622-0.65675-1.00872-0.64412-1.64649c0.00031-0.0158,0.00079-0.0316,0.00142-0.04739
	c0.00064-0.01579,0.00144-0.03157,0.0024-0.04735c-0.07182-0.61716,0.11333-1.20499,0.47071-1.6565
	c0.35738-0.4515,0.887-0.76667,1.50416-0.83848c0.04069-0.00473,0.08149-0.00836,0.12236-0.01086
	c0.04087-0.00251,0.08181-0.0039,0.12277-0.00417c0.27896-0.01417,0.55203,0.04272,0.79633,0.15971
	c0.24429,0.11699,0.45982,0.29407,0.62366,0.52029l0,0l0,0v-0.27v-0.27h0.68H128.62v2.37v2.37
	c0.01735,0.2921-0.02969,0.58068-0.13382,0.84694c-0.10411,0.26626-0.26529,0.51021-0.47618,0.71306
	c-0.26133,0.20872-0.55698,0.3648-0.87071,0.46316c-0.31374,0.09836-0.64557,0.139-0.97929,0.11684c-0.7,0-1.265-0.15-1.6725-0.425
	c-0.4075-0.275-0.6575-0.675-0.7275-1.175 M127.35,12.33734c0.04418-0.33677-0.05232-0.65956-0.24406-0.90921
	s-0.47872-0.42615-0.81549-0.47034c-0.0266-0.00349-0.0533-0.00611-0.08006-0.00785
	c-0.02676-0.00174-0.05357-0.00261-0.08039-0.0026c-0.345,0-0.6325,0.135-0.83375,0.3775s-0.31625,0.5925-0.31625,1.0225
	s0.115,0.775,0.3175,1.0125c0.20251,0.2375,0.49251,0.3675,0.84251,0.3675c0.43,0,0.7325-0.1575,0.9275-0.41
	c0.19501-0.2525,0.28251-0.6,0.28251-0.98"/>
<path class="st0" d="M134.22,14.55734L134.22,14.55734L134.22,14.55734c-0.1653,0.24954-0.39436,0.44121-0.65633,0.56091
	s-0.55681,0.16743-0.85367,0.12909c-0.5,0-0.94749-0.1375-1.26999-0.4025c-0.32249-0.265-0.52-0.6575-0.52-1.1675
	s0.23001-0.8825,0.60251-1.1475c0.3725-0.265,0.8875-0.4225,1.45749-0.5025c0.425-0.06,0.73502-0.1075,0.93877-0.18875
	s0.30124-0.19625,0.30124-0.39125s-0.07249-0.3475-0.21625-0.45125c-0.14374-0.10375-0.35875-0.15875-0.64375-0.15875
	s-0.52249,0.0575-0.69499,0.17625c-0.1725,0.11875-0.28,0.29875-0.30501,0.54375h-0.605h-0.60501
	c0-0.45,0.17751-0.8725,0.54251-1.1825s0.9175-0.5075,1.6675-0.5075s1.28751,0.1725,1.6375,0.495
	c0.35001,0.3225,0.5125,0.795,0.5125,1.395v1.305v1.305c0,0.195,0.015,0.35,0.04625,0.4675
	c0.03125,0.1175,0.07875,0.1975,0.14375,0.2425v0.025v0.025h-0.655h-0.655c-0.04681-0.08815-0.08388-0.18083-0.1107-0.27638
	c-0.02681-0.09555-0.04341-0.19397-0.0493-0.29362 M134.23001,13.31734v-0.385v-0.385
	c-0.15895,0.07283-0.32256,0.13448-0.48961,0.1846c-0.16707,0.05012-0.3376,0.08871-0.51039,0.1154
	c-0.355,0.08-0.62,0.16-0.79625,0.28c-0.17624,0.12-0.26375,0.28-0.26375,0.52s0.08,0.4025,0.22,0.505
	c0.14001,0.1025,0.34001,0.145,0.58,0.145c0.39,0,0.6925-0.12,0.89751-0.305c0.205-0.185,0.3125-0.435,0.3125-0.695"/>
<path class="st0" d="M137.7,10.69734L137.7,10.69734L137.7,10.69734c0.15489-0.27107,0.37894-0.48762,0.64223-0.63312
	c0.26331-0.1455,0.56586-0.21997,0.87778-0.20688c0.48601-0.00201,0.92682,0.19316,1.24664,0.51034
	c0.31981,0.31718,0.51862,0.75636,0.52063,1.24236c0.00012,0.02793-0.00043,0.05585-0.00165,0.08374
	c-0.00121,0.02789-0.00308,0.05575-0.00563,0.08356v1.675v1.675H140.3H139.62v-1.575v-1.575
	c0.02518-0.23337-0.04662-0.45485-0.18304-0.62428s-0.33749-0.28682-0.57086-0.312c-0.0226-0.00244-0.04527-0.00397-0.06796-0.00459
	c-0.02271-0.00062-0.04543-0.00033-0.06813,0.00087c-0.29494,0.01771-0.55478,0.15329-0.73647,0.35818
	c-0.18167,0.20489-0.28519,0.47909-0.26749,0.77403c0.00049,0.00798,0.00105,0.01595,0.00171,0.02392
	c0.00066,0.00797,0.0014,0.01592,0.00224,0.02387v1.455v1.455H137.05H136.37v-2.565v-2.565h0.66501H137.7v0.35V10.69734z"/>
<path class="st0" d="M141.62,12.56734c0-0.8,0.22751-1.4775,0.61501-1.955s0.935-0.755,1.575-0.755
	c0.29237-0.01268,0.57692,0.0535,0.82735,0.18476s0.46674,0.3276,0.62265,0.57524l0,0l0,0v-1.315v-1.315H145.94H146.62v3.57v3.57
	h-0.655h-0.655v-0.335v-0.335l0,0l0,0c-0.16151,0.26556-0.38873,0.47683-0.65321,0.61858
	c-0.26447,0.14175-0.56621,0.21397-0.87679,0.20142c-0.64499,0-1.18748-0.25-1.56874-0.71375S141.61,13.42234,141.61,12.56734
	 M145.31,12.56734c0-0.5-0.08-0.91-0.26875-1.195s-0.48625-0.445-0.92125-0.445s-0.7175,0.165-0.89125,0.44875
	c-0.17375,0.28375-0.23875,0.68625-0.23875,1.16125s0.0975,0.8675,0.2825,1.14125c0.185,0.27375,0.4575,0.42875,0.8075,0.42875
	c0.35001,0,0.6575-0.15,0.8775-0.4175c0.22-0.2675,0.35249-0.6525,0.35249-1.1225"/>
<polygon class="st0" points="80.51,17.98734 81.235,17.98734 81.96,17.98734 81.96,21.56235 81.96,25.13734 81.235,25.13734 
	80.51,25.13734 80.51,21.56235 "/>
<path class="st0" d="M84.29,20.69734L84.29,20.69734L84.29,20.69734c0.15489-0.27107,0.37892-0.48762,0.64222-0.63312
	c0.26329-0.1455,0.56584-0.21997,0.87778-0.20688c0.4886-0.01282,0.93615,0.17362,1.26475,0.48542
	c0.3286,0.31179,0.53825,0.74895,0.55107,1.23755c0.00086,0.03287,0.0008,0.06575-0.00017,0.0986
	c-0.00097,0.03285-0.00285,0.06568-0.00565,0.09843v1.675v1.675H86.935H86.25v-1.575v-1.575
	c0.02518-0.23337-0.04662-0.45485-0.18304-0.62428c-0.13644-0.16944-0.3375-0.28682-0.57086-0.312
	c-0.0226-0.00244-0.04527-0.00397-0.06798-0.00459c-0.0227-0.00062-0.04543-0.00033-0.06812,0.00087
	c-0.29494,0.01771-0.55479,0.15329-0.73647,0.35818s-0.28519,0.47909-0.26748,0.77403
	c0.00047,0.00798,0.00105,0.01595,0.0017,0.02392c0.00066,0.00797,0.0014,0.01592,0.00224,0.02387v1.455v1.455h-0.7h-0.7v-2.565
	v-2.565h0.665h0.665v0.35V20.69734z"/>
<path class="st0" d="M88.10001,19.99734h0.35h0.35v-0.23v-0.23c0-0.625,0.25-1.0475,0.66-1.29625
	c0.41-0.24875,0.98-0.32375,1.62-0.25375v0.525v0.525c-0.32,0-0.55,0.0125-0.7,0.09125
	C90.23,19.20735,90.16,19.35235,90.16,19.61735v0.19v0.19h0.46h0.46v0.47v0.47h-0.46h-0.46v2.095v2.095h-0.68H88.8v-2.095v-2.095
	h-0.35h-0.35v-0.47V19.99734z"/>
<path class="st0" d="M91.3,22.56734c0.00829-0.74002,0.31573-1.40661,0.80611-1.88614
	c0.49039-0.47952,1.1637-0.77197,1.90372-0.76369c0.74001,0.00829,1.40662,0.31573,1.88614,0.80612
	c0.47953,0.49038,0.77198,1.1637,0.76369,1.90371c-0.00822,0.73413-0.31105,1.39661-0.79536,1.87556
	c-0.48432,0.47896-1.15012,0.77439-1.8843,0.77444c-0.72046,0.01987-1.38077-0.25416-1.86593-0.71328
	c-0.48515-0.45912-0.79517-1.10332-0.81503-1.82377c-0.0008-0.02882-0.00111-0.05765-0.00095-0.08648
	S91.29889,22.59616,91.3,22.56734 M95.3,22.56735c0-0.5-0.1175-0.92-0.33875-1.215S94.415,20.88735,94,20.88735
	s-0.74001,0.17-0.96126,0.465c-0.22124,0.295-0.33875,0.715-0.33875,1.215s0.115,0.9175,0.335,1.21
	c0.22,0.2925,0.545,0.46,0.965,0.46c0.42,0,0.745-0.1675,0.965-0.46C95.185,23.48485,95.3,23.06735,95.3,22.56735"/>
<path class="st0" d="M98.62,20.81734L98.62,20.81734L98.62,20.81734c0.09788-0.26355,0.27231-0.48298,0.49255-0.6368
	s0.48631-0.24204,0.76745-0.2432c0.05289-0.00967,0.10645-0.0145,0.16-0.0145s0.10711,0.00483,0.16,0.0145v0.595v0.595l0,0l0,0
	c-0.3455-0.08677-0.69345-0.02529-0.97673,0.14425c-0.28328,0.16955-0.50188,0.44716-0.58865,0.79265
	c-0.02315,0.09216-0.03597,0.18632-0.03843,0.28074c-0.00245,0.09442,0.00547,0.18911,0.0238,0.28235v1.25v1.25h-0.68h-0.68v-2.565
	v-2.565h0.68h0.68v0.41V20.81734z"/>
<path class="st0" d="M100.8,19.99734h0.655h0.655v0.345v0.345l0,0l0,0c0.15364-0.26428,0.37335-0.47601,0.63105-0.61956
	c0.25769-0.14355,0.55337-0.21891,0.85895-0.21044c0.30526-0.00511,0.59742,0.08077,0.84469,0.23749
	c0.24727,0.15672,0.44964,0.38428,0.57531,0.66251l0,0l0,0c0.15833-0.27631,0.3841-0.50014,0.64991-0.65548
	s0.57164-0.24219,0.89009-0.24452c0.44398-0.02321,0.85534,0.13574,1.1615,0.41149c0.30617,0.27575,0.50714,0.66829,0.53035,1.11227
	c0.00259,0.04945,0.00288,0.09897,0.00091,0.14839c-0.00198,0.04943-0.00623,0.09876-0.01276,0.14785v1.725v1.725h-0.68h-0.68v-1.61
	v-1.61c0-0.29-0.07-0.51-0.2025-0.6575s-0.3275-0.2225-0.5775-0.2225s-0.48,0.11-0.6475,0.305
	c-0.1675,0.195-0.2725,0.475-0.2725,0.815v1.5v1.5h-0.68h-0.68v-1.62v-1.62c0-0.29-0.0725-0.51-0.2075-0.6575
	s-0.3325-0.2225-0.5825-0.2225s-0.48,0.11-0.6475,0.305c-0.1675,0.195-0.2725,0.475-0.2725,0.815v1.5v1.5h-0.68h-0.68l0.025-2.575
	L100.8,19.99734z"/>
<path class="st0" d="M112.21,24.55734L112.21,24.55734L112.21,24.55734c-0.16531,0.24954-0.39439,0.44121-0.65634,0.56092
	c-0.26196,0.1197-0.5568,0.16743-0.85366,0.12908c-0.5,0-0.9475-0.1375-1.27-0.4025c-0.3225-0.265-0.52-0.6575-0.52-1.1675
	s0.23-0.8825,0.60249-1.1475c0.37251-0.265,0.8875-0.4225,1.4575-0.5025c0.425-0.06,0.73499-0.1075,0.93874-0.18875
	c0.20375-0.08125,0.30125-0.19625,0.30125-0.39125s-0.0725-0.3475-0.21626-0.45125
	c-0.14375-0.10375-0.35875-0.15875-0.64375-0.15875c-0.285,0-0.5225,0.0575-0.695,0.17625s-0.28,0.29875-0.305,0.54375h-0.605
	h-0.605c0-0.45,0.1775-0.8725,0.5425-1.1825c0.365-0.31,0.9175-0.5075,1.6675-0.5075s1.29,0.1725,1.6425,0.495
	s0.5175,0.795,0.5175,1.395v1.305v1.305c0,0.195,0.015,0.35,0.045,0.4675s0.075,0.1975,0.135,0.2425v0.025v0.025h-0.655h-0.655
	c-0.04683-0.08815-0.08389-0.18083-0.1107-0.27638c-0.02682-0.09555-0.04341-0.19397-0.0493-0.29362 M112.21999,23.31734v-0.385
	v-0.385c-0.15105,0.07068-0.30643,0.13124-0.4651,0.18135c-0.15868,0.05011-0.32066,0.08977-0.48489,0.11865
	c-0.355,0.08-0.62,0.16-0.79625,0.28c-0.17625,0.12-0.26375,0.28-0.26375,0.52s0.07999,0.4025,0.21999,0.505
	c0.14001,0.1025,0.34,0.145,0.58001,0.145c0.39,0,0.6925-0.12,0.8975-0.305c0.20499-0.185,0.3125-0.435,0.3125-0.695"/>
<path class="st0" d="M113.96,19.99734h0.355h0.355v-0.8v-0.8h0.665H116v0.8v0.8h0.43999h0.44v0.45v0.45h-0.44H116v1.36v1.36
	c-0.01786,0.12297,0.01582,0.24154,0.0847,0.33384c0.06889,0.09229,0.17298,0.1583,0.29595,0.17616
	c0.02145,0.00311,0.04306,0.00467,0.06467,0.00467s0.04323-0.00156,0.06467-0.00467h0.2h0.2v0.5v0.5c0,0-0.0775,0-0.2225,0
	c-0.145,0-0.3575,0-0.62749,0c-0.27,0-0.6175-0.065-0.8975-0.25125c-0.28001-0.18625-0.4925-0.49375-0.4925-0.97875v-1.5v-1.5
	h-0.355h-0.355l-0.00001-0.45V19.99734z"/>
<path class="st0" d="M117.62,17.98734h0.68h0.68v0.605v0.605h-0.68h-0.68v-0.605V17.98734z M117.62,19.98734h0.68h0.68v2.57v2.57
	h-0.68h-0.68v-2.57V19.98734z"/>
<path class="st0" d="M119.62,22.56734c0.00829-0.74002,0.31573-1.40661,0.80611-1.88614
	c0.49039-0.47952,1.1637-0.77197,1.90372-0.76369c0.74001,0.00829,1.40662,0.31573,1.88614,0.80612
	c0.47953,0.49038,0.77198,1.1637,0.76369,1.90371c-0.00822,0.73413-0.31105,1.39661-0.79536,1.87556
	c-0.48432,0.47896-1.15012,0.77439-1.8843,0.77444c-0.72046,0.01987-1.38077-0.25416-1.86592-0.71328
	c-0.48516-0.45912-0.79517-1.10332-0.81504-1.82377c-0.0008-0.02882-0.00111-0.05765-0.00095-0.08648
	C119.61825,22.62498,119.61889,22.59616,119.62,22.56734 M123.62,22.56734c0-0.5-0.1175-0.92-0.33875-1.215
	s-0.54625-0.465-0.96125-0.465s-0.74001,0.17-0.96126,0.465c-0.22124,0.295-0.33875,0.715-0.33875,1.215s0.115,0.9175,0.335,1.21
	c0.22,0.2925,0.545,0.46,0.965,0.46c0.42,0,0.745-0.1675,0.965-0.46C123.505,23.48484,123.62,23.06734,123.62,22.56734"/>
<path class="st0" d="M126.89001,20.69734L126.89001,20.69734L126.89001,20.69734c0.15489-0.27107,0.37893-0.48762,0.64222-0.63312
	c0.2633-0.14551,0.56586-0.21997,0.87778-0.20688c0.48877-0.00176,0.93199,0.19476,1.25345,0.51391
	c0.32146,0.31915,0.52116,0.76093,0.52292,1.2497c0.00009,0.0261-0.00038,0.05219-0.00145,0.07826
	c-0.00105,0.02607-0.0027,0.05212-0.00491,0.07812v1.675v1.675h-0.67999h-0.68001v-1.575v-1.575
	c0.02518-0.23337-0.04662-0.45485-0.18304-0.62428c-0.13643-0.16944-0.33749-0.28682-0.57086-0.312
	c-0.0226-0.00244-0.04527-0.00397-0.06797-0.00459s-0.04542-0.00033-0.06812,0.00087
	c-0.29494,0.01771-0.55479,0.15329-0.73647,0.35818s-0.28519,0.47909-0.26749,0.77403
	c0.00048,0.00798,0.00105,0.01595,0.0017,0.02392c0.00066,0.00797,0.00141,0.01592,0.00225,0.02387v1.455v1.455h-0.68h-0.68v-2.565
	v-2.565h0.665h0.665l-0.005,0.35L126.89001,20.69734z"/>
<path class="st0" d="M132.51999,22.91735H133.23h0.70999c0.05,0.43,0.19751,0.73,0.46001,0.9225
	c0.2625,0.1925,0.64,0.2775,1.14999,0.2775c0.37001,0,0.71501-0.065,0.96751-0.2125c0.2525-0.1475,0.41249-0.3775,0.41249-0.7075
	s-0.1675-0.54-0.47124-0.69875c-0.30376-0.15875-0.74376-0.26625-1.28876-0.39125c-0.64-0.145-1.25249-0.3025-1.70499-0.61
	c-0.4525-0.3075-0.74501-0.765-0.74501-1.51s0.28751-1.28,0.77376-1.62875s1.17125-0.51125,1.96625-0.51125
	c0.79501,0,1.45502,0.1975,1.93001,0.575c0.47501,0.3775,0.765,0.935,0.81999,1.655h-0.69h-0.69
	c-0.0386-0.33745-0.21033-0.62731-0.45679-0.82315c-0.24644-0.19584-0.5676-0.29767-0.90506-0.25906
	c-0.00302,0.00035-0.00606,0.0007-0.00908,0.00107c-0.00302,0.00037-0.00606,0.00075-0.00908,0.00114
	c-0.39,0-0.71249,0.0825-0.93748,0.22875c-0.22501,0.14625-0.35251,0.35625-0.35251,0.61125c0,0.255,0.125,0.4425,0.38251,0.5975
	c0.25749,0.155,0.64749,0.2775,1.17749,0.4025c0.73001,0.16,1.395,0.3275,1.8775,0.6475c0.48251,0.32,0.7825,0.7925,0.7825,1.5625
	s-0.2925,1.335-0.78499,1.7075c-0.49251,0.3725-1.18501,0.5525-1.98502,0.5525c-0.97,0-1.72-0.215-2.23874-0.61875
	c-0.51875-0.40375-0.80626-0.99625-0.85126-1.75125"/>
<path class="st0" d="M138.89999,22.56734c-0.04977-0.69686,0.18762-1.34793,0.61168-1.83723s1.03477-0.81682,1.73163-0.8666
	c0.03606-0.00257,0.07216-0.00438,0.10829-0.00541c0.03612-0.00103,0.07227-0.00128,0.1084-0.00076
	c0.57587-0.04743,1.1194,0.13598,1.5372,0.47453c0.41779,0.33856,0.70985,0.83227,0.78281,1.40546h-0.66h-0.66
	c-0.03714-0.22994-0.15569-0.42893-0.32318-0.56969c-0.16748-0.14076-0.38391-0.22329-0.61682-0.22031
	c-0.41,0-0.72,0.1575-0.92751,0.43875c-0.20749,0.28125-0.3125,0.68625-0.3125,1.18125s0.0975,0.9,0.29875,1.18125
	s0.50626,0.43875,0.92125,0.43875c0.25264,0.00214,0.48622-0.09011,0.66486-0.24552
	c0.17863-0.15541,0.30231-0.37398,0.33514-0.62448h0.65001h0.64999c-0.03691,0.58979-0.3094,1.10878-0.72009,1.4711
	c-0.41071,0.36231-0.95963,0.56795-1.54942,0.53103c-0.00508-0.00032-0.01016-0.00065-0.01524-0.00101
	c-0.00508-0.00035-0.01016-0.00073-0.01524-0.00112c-0.70377,0.02351-1.35043-0.24047-1.82704-0.68627
	c-0.47661-0.4458-0.78314-1.07342-0.80666-1.77719c-0.00137-0.0411-0.00174-0.08221-0.00113-0.12331
	c0.00061-0.0411,0.00223-0.08219,0.00482-0.12323"/>
<path class="st0" d="M144.42999,17.98734H145.11h0.67999v0.605v0.605H145.11h-0.68001v-0.605V17.98734z M144.42999,19.98734H145.11
	h0.67999v2.57v2.57H145.11h-0.68001v-2.57V19.98734z"/>
<path class="st0" d="M146.42,22.55734c-0.04417-0.70001,0.19955-1.35166,0.62933-1.83935s1.04561-0.81143,1.74562-0.85561
	c0.02582-0.00163,0.05165-0.00286,0.07748-0.0037c0.02585-0.00084,0.0517-0.00129,0.07756-0.00134
	c0.825,0,1.4575,0.315,1.88376,0.85875c0.42624,0.54375,0.64624,1.31625,0.64624,2.23125h-1.86h-1.86
	c-0.00009,0.35346,0.14308,0.6735,0.37466,0.9052c0.23157,0.2317,0.55153,0.37506,0.90498,0.37515
	c0.00507,0,0.01012-0.00003,0.01518-0.00009c0.00505-0.00006,0.01012-0.00015,0.01517-0.00027
	c0.21753,0.01526,0.42746-0.04084,0.60304-0.15145s0.31682-0.27575,0.39696-0.47854h0.67h0.67
	c-0.12646,0.52785-0.43599,0.97012-0.84914,1.2693c-0.41315,0.29917-0.92992,0.45525-1.47087,0.4107
	c-0.70053,0.03496-1.34891-0.21733-1.8309-0.65349c-0.48199-0.43617-0.79759-1.0562-0.83255-1.75673
	c-0.00258-0.05161-0.00357-0.10328-0.00299-0.15494c0.00056-0.05165,0.00272-0.10329,0.00644-0.15483 M147.78998,22.00735h1.14h1.14
	c0.00554-0.29818-0.11031-0.57038-0.30208-0.76941c-0.19179-0.19904-0.4595-0.32491-0.75769-0.33045
	c-0.00504-0.00009-0.01007-0.00015-0.01511-0.00017s-0.01009-0.00001-0.01512,0.00004
	c-0.31448-0.01399-0.60487,0.10082-0.82014,0.29774c-0.21526,0.19693-0.35541,0.47598-0.3694,0.79046
	c-0.00008,0.00197-0.00015,0.00393-0.00023,0.0059C147.79013,22.00342,147.79005,22.00538,147.78998,22.00735"/>
<path class="st0" d="M153.44,20.69734L153.44,20.69734L153.44,20.69734c0.15489-0.27107,0.37894-0.48762,0.64223-0.63312
	c0.26331-0.14551,0.56586-0.21997,0.87778-0.20688c0.48601-0.00201,0.92682,0.19316,1.24664,0.51034
	c0.31981,0.31718,0.51862,0.75636,0.52063,1.24236c0.00012,0.02793-0.00043,0.05585-0.00165,0.08374
	c-0.00121,0.02789-0.00308,0.05575-0.00563,0.08356v1.675v1.675h-0.675h-0.675v-1.575v-1.575
	c0.02518-0.23337-0.04662-0.45485-0.18304-0.62428c-0.13643-0.16944-0.33749-0.28682-0.57086-0.312
	c-0.0226-0.00244-0.04527-0.00397-0.06796-0.00459c-0.02271-0.00062-0.04543-0.00033-0.06813,0.00087
	c-0.29494,0.01771-0.55478,0.15329-0.73647,0.35818c-0.18167,0.20489-0.28519,0.47909-0.26749,0.77403
	c0.00049,0.00798,0.00105,0.01595,0.00171,0.02392c0.00066,0.00797,0.0014,0.01592,0.00224,0.02387v1.455v1.455H152.8H152.12v-2.565
	v-2.565h0.66501H153.45l-0.00499,0.35L153.44,20.69734z"/>
<path class="st0" d="M157.34999,22.56734c-0.04977-0.69686,0.18762-1.34793,0.61168-1.83723s1.03477-0.81682,1.73163-0.8666
	c0.03606-0.00257,0.07216-0.00438,0.10829-0.00541c0.03612-0.00103,0.07227-0.00128,0.1084-0.00076
	c0.57587-0.04743,1.1194,0.13598,1.5372,0.47453c0.41779,0.33856,0.70985,0.83227,0.78281,1.40546h-0.66h-0.66
	c-0.03714-0.22994-0.15569-0.42893-0.32318-0.56969c-0.16748-0.14076-0.38391-0.22329-0.61682-0.22031
	c-0.41,0-0.72,0.1575-0.92751,0.43875c-0.20749,0.28125-0.3125,0.68625-0.3125,1.18125s0.0975,0.9,0.29875,1.18125
	s0.50626,0.43875,0.92125,0.43875c0.25264,0.00214,0.48622-0.09011,0.66486-0.24552
	c0.17863-0.15541,0.30231-0.37398,0.33514-0.62448h0.65001h0.64999c-0.03691,0.58979-0.3094,1.10878-0.72009,1.4711
	c-0.41071,0.36231-0.95963,0.56795-1.54942,0.53103c-0.00508-0.00032-0.01016-0.00065-0.01524-0.00101
	c-0.00508-0.00035-0.01016-0.00073-0.01524-0.00112c-0.70377,0.02351-1.35043-0.24047-1.82704-0.68627
	c-0.47661-0.4458-0.78314-1.07342-0.80666-1.77719c-0.00137-0.0411-0.00174-0.08221-0.00113-0.12331
	c0.00061-0.0411,0.00223-0.08219,0.00482-0.12323"/>
<path class="st0" d="M162.62,22.55734c-0.04417-0.70001,0.19955-1.35166,0.62933-1.83935s1.04561-0.81143,1.74562-0.85561
	c0.02582-0.00163,0.05165-0.00286,0.07748-0.0037c0.02585-0.00084,0.0517-0.00129,0.07756-0.00134
	c0.825,0,1.4575,0.315,1.88376,0.85875c0.42624,0.54375,0.64624,1.31625,0.64624,2.23125h-1.86h-1.86
	c-0.00009,0.35346,0.14308,0.6735,0.37466,0.9052c0.23157,0.2317,0.55153,0.37506,0.90498,0.37515
	c0.00507,0,0.01012-0.00003,0.01518-0.00009c0.00505-0.00006,0.01012-0.00015,0.01517-0.00027
	c0.21753,0.01526,0.42746-0.04084,0.60304-0.15145s0.31682-0.27575,0.39696-0.47854h0.675h0.675
	c-0.12646,0.52785-0.43599,0.97012-0.84914,1.2693c-0.41315,0.29917-0.92992,0.45525-1.47087,0.4107
	c-0.70023,0.04051-1.35059-0.20665-1.83601-0.63899c-0.48543-0.43234-0.80592-1.04986-0.84644-1.75009
	c-0.00319-0.05512-0.00458-0.11032-0.00417-0.1655S162.616,22.61241,162.62,22.55734 M163.98,22.00735h1.14h1.14
	c0.00554-0.29818-0.11031-0.57038-0.30208-0.76941c-0.19179-0.19904-0.4595-0.32491-0.75769-0.33045
	c-0.00504-0.00009-0.01007-0.00015-0.01511-0.00017s-0.01009-0.00001-0.01512,0.00004
	c-0.31448-0.01399-0.60487,0.10082-0.82014,0.29774c-0.21526,0.19693-0.35541,0.47598-0.3694,0.79046
	c-0.00008,0.00197-0.00015,0.00393-0.00023,0.0059C163.98015,22.00341,163.98007,22.00538,163.98,22.00735"/>
<path class="st0" d="M168,23.46734h0.63h0.62999c0.03876,0.27113,0.18298,0.50144,0.38541,0.65507
	c0.20241,0.15362,0.46303,0.23056,0.73459,0.19493c0.3,0,0.535-0.0575,0.69501-0.16c0.16-0.1025,0.245-0.25,0.245-0.43
	s-0.16249-0.315-0.41249-0.4225s-0.58751-0.1875-0.93752-0.2575c-0.45999-0.09-0.91499-0.1975-1.255-0.4225
	c-0.34-0.225-0.565-0.5675-0.565-1.1275s0.23001-0.97,0.60625-1.24c0.37625-0.27,0.89876-0.4,1.48375-0.4
	c0.675,0,1.19751,0.1675,1.56375,0.46375c0.36626,0.29625,0.57625,0.72125,0.62625,1.23625h-0.61h-0.61
	c-0.03-0.275-0.13249-0.4625-0.30124-0.58125c-0.16876-0.11875-0.40376-0.16875-0.69876-0.16875s-0.515,0.05-0.66124,0.14625
	c-0.14626,0.09625-0.21877,0.23875-0.21877,0.42375s0.17,0.305,0.43126,0.3975c0.26125,0.0925,0.61374,0.1575,0.97874,0.2325
	c0.36501,0.075,0.81502,0.18,1.17377,0.41625s0.62624,0.60375,0.62624,1.20375c0,0.5-0.2175,0.9125-0.59499,1.2
	c-0.3775,0.2875-0.91501,0.45-1.55501,0.45c-0.745,0-1.325-0.18-1.72874-0.49625s-0.63126-0.76875-0.67125-1.31375"/>
</svg>
